PathFileType	4	(X/Y/Z)	C:\Users\chris\Documents\GitHub\baseballds\vids\pitch4_Sports2D\pitch4_Sports2D_m_person00.trc
DataRate	CameraRate	NumFrames	NumMarkers	Units	OrigDataRate	OrigDataStartFrame	OrigNumFrames
30	30	9	22	m	30	89	238
Frame#	Time	Hip			RHip			RKnee			RAnkle			RBigToe			RSmallToe			RHeel			LHip			LKnee			LAnkle			LBigToe			LSmallToe			LHeel			Neck			Head			Nose			RShoulder			RElbow			RWrist			LShoulder			LElbow			LWrist		
		X1	Y1	Z1	X2	Y2	Z2	X3	Y3	Z3	X4	Y4	Z4	X5	Y5	Z5	X6	Y6	Z6	X7	Y7	Z7	X8	Y8	Z8	X9	Y9	Z9	X10	Y10	Z10	X11	Y11	Z11	X12	Y12	Z12	X13	Y13	Z13	X14	Y14	Z14	X15	Y15	Z15	X16	Y16	Z16	X17	Y17	Z17	X18	Y18	Z18	X19	Y19	Z19	X20	Y20	Z20	X21	Y21	Z21	X22	Y22	Z22
89	2.966666666666667	0.816354453493712	0.8536451634240146	0.0	0.765420170979632	0.8412844138534664	0.0	0.7247393554836649	0.4056265500158331	0.0	0.4414245992604164	0.08326177705390486	0.0	0.6140502505067684	-0.07760641062881239	0.0	0.5650983268352315	-0.07743126627343262	0.0	0.3778726109780358	0.05284034185454877	0.0	0.8618835278207833	0.8087354126958045	0.0	0.7451671430946881	0.4284510664876909	0.0	0.5503114650822357	0.17002440981844266	0.0	0.6877394205865085	0.018180784530287635	0.0	0.6830117317002504	0.06222212942022675	0.0	0.4859173765109228	0.15109426913142818	0.0	1.1902266350274626	1.3192284950592954	0.0	1.3288526825918634	1.5324937925752757	0.0	1.393457955600015	1.3674902684121018	0.0	1.066819844736842	1.2588483732883313	0.0	0.9805586213978861	0.9396410792705119	0.0	1.2600566420556636	0.8481949878043165	0.0	1.2049971887484452	1.1987570794918943	0.0	1.1003424731486944	0.9505761912667667	0.0	1.269073224509036	0.8507508790265981	0.0
90	3.0	0.8169612909114594	0.852951908795794	0.0	0.7677262182543787	0.8412618034184942	0.0	0.7265971869912654	0.40616643782704476	0.0	0.44511888891995194	0.08351340615255913	0.0	0.6152087533708431	-0.08218225432586046	0.0	0.5659790455173906	-0.07930806297297198	0.0	0.3803203087597967	0.05368367727653205	0.0	0.8634240657276409	0.8091016551751885	0.0	0.7471084860757261	0.4284290373885039	0.0	0.5479039208021413	0.16383407658020208	0.0	0.6910904974460736	0.011906088904089902	0.0	0.6847173615717772	0.05859330065639185	0.0	0.48357174256611213	0.1461672408137267	0.0	1.190381145067885	1.3192886371710453	0.0	1.3260172467092384	1.531108688646897	0.0	1.3927047484487323	1.368198900167334	0.0	1.068494115162508	1.2595966148344349	0.0	0.9813630231603614	0.942748098371853	0.0	1.2596909410557762	0.84862986628955	0.0	1.2025849446650285	1.1998460847648131	0.0	1.0997813430016732	0.9509836111498187	0.0	1.2668191242225448	0.8516924552355039	0.0
91	3.033333333333333	0.8173454639778978	0.8517239631309059	0.0	0.7692812755197812	0.8400201748511099	0.0	0.7272460977328886	0.4070837079159572	0.0	0.4477087446820216	0.08247269088343066	0.0	0.6146481982077673	-0.08505749114460895	0.0	0.5638534496545053	-0.0795694425748938	0.0	0.38230401393321256	0.0530511787131375	0.0	0.8637762598395704	0.8078099873666624	0.0	0.7490196672453753	0.4288626668420562	0.0	0.5504766273064667	0.1625927365603399	0.0	0.6930660648070033	0.012280611855777787	0.0	0.6877650908702029	0.05921936255731597	0.0	0.4887106855471379	0.1427050596436843	0.0	1.190355131438511	1.3204068936552698	0.0	1.3280334664292728	1.5293960486117202	0.0	1.3915727643844085	1.365480578720941	0.0	1.0712226941049696	1.260069643998569	0.0	0.9797970248209105	0.9446624120264115	0.0	1.2582448642081983	0.8505642445593862	0.0	1.1986259492233295	1.2028647896917102	0.0	1.094254451711578	0.9550212262557063	0.0	1.2631901377587917	0.8556049308729091	0.0
92	3.0666666666666664	0.8183224350265708	0.8487257969466693	0.0	0.7713421584122272	0.8368767093482282	0.0	0.7274428411612275	0.4075805624695051	0.0	0.4493790460519841	0.08195340776813255	0.0	0.6133144174710039	-0.08643506594129864	0.0	0.5604185877753427	-0.07945258554416026	0.0	0.38469632042673957	0.0522127569426579	0.0	0.8650016138477941	0.8038025356118613	0.0	0.7507086262103162	0.4288840810021299	0.0	0.5576787831959515	0.16514122510649218	0.0	0.6953173911811579	0.014922877729561084	0.0	0.6923604163595548	0.05999193582330214	0.0	0.4978858025531375	0.14223948704092332	0.0	1.1892466987336376	1.321740499596111	0.0	1.3317335159485315	1.5290740239411538	0.0	1.3904682591075705	1.36205084141216	0.0	1.0719707105912608	1.26064039141926	0.0	0.9740689354494049	0.9466165906737934	0.0	1.2539980816021408	0.8527857511667749	0.0	1.1955423654762225	1.2051730882241196	0.0	1.087319951901759	0.9597587077734542	0.0	1.2596807894676556	0.8597554108612999	0.0
93	3.1	0.8211316081221145	0.8437762852766867	0.0	0.7749098826326871	0.8325226999874943	0.0	0.7286945571376959	0.4077481508942891	0.0	0.4512809945782079	0.08292920201877542	0.0	0.6136871313842063	-0.08781476357819779	0.0	0.5583891850440912	-0.07992914335761456	0.0	0.3874593583148023	0.052133950520651784	0.0	0.869815615838456	0.7983010005889168	0.0	0.7526487951566615	0.4281225558179128	0.0	0.5655738761665454	0.16609891381758632	0.0	0.7003789593643601	0.013163793786396673	0.0	0.6976193808648726	0.05691200103321797	0.0	0.5045310750621207	0.14326065163189247	0.0	1.1881430503264403	1.3225648974560158	0.0	1.3308688660443981	1.5312564636804042	0.0	1.390121755315344	1.3629192555883245	0.0	1.0700790182654478	1.2608877381993742	0.0	0.9638330566757916	0.9504673266665977	0.0	1.2457048806487074	0.854842060012108	0.0	1.195458768737802	1.2053165247324156	0.0	1.083262166235371	0.9620038464934167	0.0	1.2552178507487892	0.8618553125087268	0.0
94	3.1333333333333333	0.8248372096682387	0.8387424948420499	0.0	0.778905530449527	0.8284288144890798	0.0	0.7308816573943684	0.4073022568196122	0.0	0.4529929102003372	0.08320723578780916	0.0	0.6166219103032697	-0.08944549451253787	0.0	0.55988979929054	-0.08148308890691905	0.0	0.38907028440277286	0.051195682056569554	0.0	0.8756286627478536	0.7942470329151445	0.0	0.75429285720558	0.42727863399747046	0.0	0.5696214433278607	0.16472176027130453	0.0	0.7054058290571933	0.008072575479150001	0.0	0.7002852606873096	0.052014387297669155	0.0	0.5058565901459666	0.14318212982148398	0.0	1.1885383942194956	1.3222135232901981	0.0	1.3269560471123643	1.5338183071948468	0.0	1.3898438190189262	1.366569790345607	0.0	1.0687857648299715	1.260010737943956	0.0	0.9502485277832498	0.9561887315200974	0.0	1.2330106880395078	0.8570893533467682	0.0	1.1965976717433828	1.2041930248940316	0.0	1.0783610410984625	0.9623596793881221	0.0	1.2459087273643066	0.8607859495004855	0.0
95	3.1666666666666665	0.8276674849342506	0.834543553345794	0.0	0.7822145595939318	0.8260518207052766	0.0	0.7328647885055035	0.40606470049979726	0.0	0.45308985357372494	0.08011506223251955	0.0	0.6209845257254021	-0.09065494886119012	0.0	0.5648055418990181	-0.08384077307137335	0.0	0.38863281486926843	0.04766947693684389	0.0	0.8791027946365925	0.7924458303624744	0.0	0.7556331846498715	0.4265037845980134	0.0	0.5686453810315376	0.16324930518424186	0.0	0.7065721318177945	0.0038299211690759082	0.0	0.6986766424523361	0.048221602153283236	0.0	0.5042012813626618	0.14117229972802248	0.0	1.1901654900598875	1.3204114463247167	0.0	1.3246357228499521	1.5345517323597329	0.0	1.3882885086224275	1.367925451085226	0.0	1.0703158668363095	1.2585313568839434	0.0	0.935739006676873	0.9630794757793095	0.0	1.2163285534675496	0.8604995851836514	0.0	1.1968562695698963	1.2026788326816764	0.0	1.07023898708185	0.962163659298679	0.0	1.2301130310022443	0.8570615894861673	0.0
96	3.2	0.8301064096951435	0.8308526275149628	0.0	0.7851568378513596	0.8249209406455842	0.0	0.7338410698272635	0.4043804750572985	0.0	0.4523214125564236	0.07458599084491278	0.0	0.6248308188181154	-0.0917448371353505	0.0	0.5706846121596775	-0.08631498283626803	0.0	0.3872489984467462	0.04261742567835305	0.0	0.8808159758271302	0.7904938818655808	0.0	0.757142460796122	0.42415740820525805	0.0	0.5643941572646497	0.15961932521703068	0.0	0.7040927691649403	-0.0008983468172029721	0.0	0.6946972842551066	0.04386539441655447	0.0	0.5014127398521053	0.13644136292385492	0.0	1.1916530342370668	1.3178831141169736	0.0	1.3236499319966397	1.5329717884844192	0.0	1.386870512838131	1.3663885552355977	0.0	1.072276958027832	1.2570597943885604	0.0	0.9221318466592009	0.9704065319782692	0.0	1.196583157545799	0.8653559529237551	0.0	1.1976396934092526	1.2008146545809597	0.0	1.0642190244195842	0.962109226323866	0.0	1.2106539556993081	0.8539849088413957	0.0
97	3.2333333333333334	0.8339354329033464	0.8284340612926113	0.0	0.7879419811315432	0.823750724663326	0.0	0.7340062749228204	0.40242377460916384	0.0	0.4532403775812799	0.0703109903262584	0.0	0.6265501137790545	-0.09342528746648739	0.0	0.5745262373472635	-0.08830362267904655	0.0	0.3866042822816103	0.0385679988687363	0.0	0.8827314333285351	0.7871746592387197	0.0	0.7580353852982574	0.4196700126132987	0.0	0.5592271094492473	0.1515887499975276	0.0	0.7006773784775522	-0.008688289485823189	0.0	0.6912534957095021	0.037211861873205285	0.0	0.4969463734943019	0.12836857167516397	0.0	1.1924759269748682	1.3157807588295625	0.0	1.3230706836043202	1.5294397298564233	0.0	1.3886950077283529	1.3641532047730165	0.0	1.0719160642924714	1.2562222579916544	0.0	0.9089900763893585	0.9780566017436332	0.0	1.175407738641695	0.8702745819908319	0.0	1.2003111552239334	1.199191045758118	0.0	1.062280395039904	0.9641661619059466	0.0	1.1910530073007062	0.8549287227828825	0.0
